dataset
version=1
nRows=30
nColumns=39
inDegrees=no
endheader
time	sternoclavicular_r2	sternoclavicular_r3	unrotscap_r3	unrotscap_r2	acromioclavicular_r2	acromioclavicular_r3	acromioclavicular_r1	unrothum_r1	unrothum_r3	unrothum_r2	elv_angle	shoulder_elv	shoulder1_r2	shoulder_rot	elbow_flexion	pro_sup	deviation	flexion	cmc_abduction	cmc_flexion	mp_flexion	ip_flexion	mcp2_flexion	mcp2_abduction	pm2_flexion	md2_flexion	mcp3_flexion	mcp3_abduction	pm3_flexion	md3_flexion	mcp4_flexion	mcp4_abduction	pm4_flexion	md4_flexion	mcp5_flexion	mcp5_abduction	pm5_flexion	md5_flexion
5.915000	-0.024019	-0.312923	0.165766	0.129011	0.101793	0.129251	-0.120825	-0.124603	0.108768	0.123936	0.109530	0.027437	0.146525	0.146525	1.511187	1.288027	0.000000	0.000000	0.000000	0.000000	0.000000	0.000000	0.000000	0.000000	0.000000	0.000000	0.000000	0.000000	0.000000	0.000000	0.000000	0.000000	0.000000	0.000000	0.000000	0.000000	0.000000	0.000000
5.920000	-0.023992	-0.313103	0.166543	0.128583	0.101222	0.129906	-0.121343	-0.125836	0.109572	0.123467	0.109083	0.027437	0.146525	0.146525	1.510831	1.288050	0.000000	0.000000	0.000000	0.000000	0.000000	0.000000	0.000000	0.000000	0.000000	0.000000	0.000000	0.000000	0.000000	0.000000	0.000000	0.000000	0.000000	0.000000	0.000000	0.000000	0.000000	0.000000
5.925000	-0.023964	-0.313283	0.167329	0.128147	0.100643	0.130559	-0.121873	-0.127088	0.110375	0.122997	0.108629	0.027437	0.146525	0.146525	1.510475	1.288073	0.000000	0.000000	0.000000	0.000000	0.000000	0.000000	0.000000	0.000000	0.000000	0.000000	0.000000	0.000000	0.000000	0.000000	0.000000	0.000000	0.000000	0.000000	0.000000	0.000000	0.000000	0.000000
5.930000	-0.023934	-0.313464	0.168123	0.127704	0.100057	0.131210	-0.122413	-0.128356	0.111176	0.122523	0.108170	0.027437	0.146525	0.146525	1.510119	1.288096	0.000000	0.000000	0.000000	0.000000	0.000000	0.000000	0.000000	0.000000	0.000000	0.000000	0.000000	0.000000	0.000000	0.000000	0.000000	0.000000	0.000000	0.000000	0.000000	0.000000	0.000000	0.000000
5.935000	-0.023903	-0.313645	0.168925	0.127254	0.099465	0.131859	-0.122964	-0.129642	0.111975	0.122047	0.107704	0.027437	0.146525	0.146525	1.509764	1.288118	0.000000	0.000000	0.000000	0.000000	0.000000	0.000000	0.000000	0.000000	0.000000	0.000000	0.000000	0.000000	0.000000	0.000000	0.000000	0.000000	0.000000	0.000000	0.000000	0.000000	0.000000	0.000000
5.940000	-0.023870	-0.313826	0.169735	0.126796	0.098866	0.132506	-0.123526	-0.130944	0.112773	0.121568	0.107233	0.027437	0.146525	0.146525	1.509410	1.288140	0.000000	0.000000	0.000000	0.000000	0.000000	0.000000	0.000000	0.000000	0.000000	0.000000	0.000000	0.000000	0.000000	0.000000	0.000000	0.000000	0.000000	0.000000	0.000000	0.000000	0.000000	0.000000
5.945000	-0.023836	-0.314007	0.170553	0.126332	0.098259	0.133150	-0.124098	-0.132262	0.113568	0.121088	0.106755	0.027437	0.146525	0.146525	1.509057	1.288162	0.000000	0.000000	0.000000	0.000000	0.000000	0.000000	0.000000	0.000000	0.000000	0.000000	0.000000	0.000000	0.000000	0.000000	0.000000	0.000000	0.000000	0.000000	0.000000	0.000000	0.000000	0.000000
5.950000	-0.023801	-0.314188	0.171378	0.125860	0.097647	0.133791	-0.124680	-0.133597	0.114360	0.120605	0.106273	0.027437	0.146525	0.146525	1.508705	1.288183	0.000000	0.000000	0.000000	0.000000	0.000000	0.000000	0.000000	0.000000	0.000000	0.000000	0.000000	0.000000	0.000000	0.000000	0.000000	0.000000	0.000000	0.000000	0.000000	0.000000	0.000000	0.000000
5.955000	-0.023765	-0.314368	0.172209	0.125381	0.097028	0.134428	-0.125271	-0.134947	0.115151	0.120120	0.105784	0.027437	0.146525	0.146525	1.508353	1.288204	0.000000	0.000000	0.000000	0.000000	0.000000	0.000000	0.000000	0.000000	0.000000	0.000000	0.000000	0.000000	0.000000	0.000000	0.000000	0.000000	0.000000	0.000000	0.000000	0.000000	0.000000	0.000000
5.960000	-0.023727	-0.314547	0.173046	0.124895	0.096402	0.135062	-0.125872	-0.136313	0.115938	0.119633	0.105290	0.027437	0.146525	0.146525	1.508004	1.288224	0.000000	0.000000	0.000000	0.000000	0.000000	0.000000	0.000000	0.000000	0.000000	0.000000	0.000000	0.000000	0.000000	0.000000	0.000000	0.000000	0.000000	0.000000	0.000000	0.000000	0.000000	0.000000
5.965000	-0.023688	-0.314726	0.173888	0.124403	0.095770	0.135692	-0.126481	-0.137694	0.116724	0.119145	0.104791	0.027437	0.146525	0.146525	1.507655	1.288245	0.000000	0.000000	0.000000	0.000000	0.000000	0.000000	0.000000	0.000000	0.000000	0.000000	0.000000	0.000000	0.000000	0.000000	0.000000	0.000000	0.000000	0.000000	0.000000	0.000000	0.000000	0.000000
5.970000	-0.023648	-0.314903	0.174736	0.123903	0.095132	0.136319	-0.127099	-0.139089	0.117506	0.118655	0.104287	0.027437	0.146525	0.146525	1.507308	1.288265	0.000000	0.000000	0.000000	0.000000	0.000000	0.000000	0.000000	0.000000	0.000000	0.000000	0.000000	0.000000	0.000000	0.000000	0.000000	0.000000	0.000000	0.000000	0.000000	0.000000	0.000000	0.000000
5.975000	-0.023607	-0.315079	0.175589	0.123397	0.094488	0.136941	-0.127726	-0.140499	0.118285	0.118163	0.103778	0.027437	0.146525	0.146525	1.506963	1.288284	0.000000	0.000000	0.000000	0.000000	0.000000	0.000000	0.000000	0.000000	0.000000	0.000000	0.000000	0.000000	0.000000	0.000000	0.000000	0.000000	0.000000	0.000000	0.000000	0.000000	0.000000	0.000000
5.980000	-0.023564	-0.315253	0.176446	0.122884	0.093839	0.137558	-0.128359	-0.141924	0.119062	0.117670	0.103265	0.027437	0.146525	0.146525	1.506619	1.288304	0.000000	0.000000	0.000000	0.000000	0.000000	0.000000	0.000000	0.000000	0.000000	0.000000	0.000000	0.000000	0.000000	0.000000	0.000000	0.000000	0.000000	0.000000	0.000000	0.000000	0.000000	0.000000
5.985000	-0.023521	-0.315426	0.177307	0.122364	0.093183	0.138171	-0.129001	-0.143362	0.119835	0.117176	0.102747	0.027437	0.146525	0.146525	1.506277	1.288322	0.000000	0.000000	0.000000	0.000000	0.000000	0.000000	0.000000	0.000000	0.000000	0.000000	0.000000	0.000000	0.000000	0.000000	0.000000	0.000000	0.000000	0.000000	0.000000	0.000000	0.000000	0.000000
5.990000	-0.023476	-0.315597	0.178171	0.121838	0.092522	0.138779	-0.129649	-0.144813	0.120605	0.116681	0.102224	0.027437	0.146525	0.146525	1.505937	1.288341	0.000000	0.000000	0.000000	0.000000	0.000000	0.000000	0.000000	0.000000	0.000000	0.000000	0.000000	0.000000	0.000000	0.000000	0.000000	0.000000	0.000000	0.000000	0.000000	0.000000	0.000000	0.000000
5.995000	-0.023430	-0.315765	0.179038	0.121306	0.091856	0.139381	-0.130304	-0.146277	0.121371	0.116184	0.101698	0.027437	0.146525	0.146525	1.505598	1.288359	0.000000	0.000000	0.000000	0.000000	0.000000	0.000000	0.000000	0.000000	0.000000	0.000000	0.000000	0.000000	0.000000	0.000000	0.000000	0.000000	0.000000	0.000000	0.000000	0.000000	0.000000	0.000000
6.000000	-0.023383	-0.315932	0.179907	0.120768	0.091185	0.139978	-0.130965	-0.147754	0.122135	0.115687	0.101167	0.027437	0.146525	0.146525	1.505262	1.288377	0.000000	0.000000	0.000000	0.000000	0.000000	0.000000	0.000000	0.000000	0.000000	0.000000	0.000000	0.000000	0.000000	0.000000	0.000000	0.000000	0.000000	0.000000	0.000000	0.000000	0.000000	0.000000
6.005000	-0.023334	-0.316095	0.180778	0.120224	0.090509	0.140569	-0.131632	-0.149243	0.122894	0.115190	0.100633	0.027437	0.146525	0.146525	1.504927	1.288395	0.000000	0.000000	0.000000	0.000000	0.000000	0.000000	0.000000	0.000000	0.000000	0.000000	0.000000	0.000000	0.000000	0.000000	0.000000	0.000000	0.000000	0.000000	0.000000	0.000000	0.000000	0.000000
6.010000	-0.023285	-0.316256	0.181651	0.119673	0.089828	0.141154	-0.132304	-0.150743	0.123651	0.114692	0.100095	0.027437	0.146525	0.146525	1.504595	1.288412	0.000000	0.000000	0.000000	0.000000	0.000000	0.000000	0.000000	0.000000	0.000000	0.000000	0.000000	0.000000	0.000000	0.000000	0.000000	0.000000	0.000000	0.000000	0.000000	0.000000	0.000000	0.000000
6.015000	-0.023234	-0.316415	0.182524	0.119117	0.089143	0.141732	-0.132981	-0.152255	0.124403	0.114194	0.099554	0.027437	0.146525	0.146525	1.504264	1.288429	0.000000	0.000000	0.000000	0.000000	0.000000	0.000000	0.000000	0.000000	0.000000	0.000000	0.000000	0.000000	0.000000	0.000000	0.000000	0.000000	0.000000	0.000000	0.000000	0.000000	0.000000	0.000000
6.020000	-0.023183	-0.316570	0.183397	0.118555	0.088453	0.142304	-0.133663	-0.153778	0.125151	0.113695	0.099009	0.027437	0.146525	0.146525	1.503936	1.288445	0.000000	0.000000	0.000000	0.000000	0.000000	0.000000	0.000000	0.000000	0.000000	0.000000	0.000000	0.000000	0.000000	0.000000	0.000000	0.000000	0.000000	0.000000	0.000000	0.000000	0.000000	0.000000
6.025000	-0.023130	-0.316722	0.184271	0.117988	0.087759	0.142869	-0.134349	-0.155311	0.125896	0.113197	0.098462	0.027437	0.146525	0.146525	1.503610	1.288461	0.000000	0.000000	0.000000	0.000000	0.000000	0.000000	0.000000	0.000000	0.000000	0.000000	0.000000	0.000000	0.000000	0.000000	0.000000	0.000000	0.000000	0.000000	0.000000	0.000000	0.000000	0.000000
6.030000	-0.023077	-0.316871	0.185143	0.117415	0.087061	0.143427	-0.135039	-0.156854	0.126637	0.112699	0.097912	0.027437	0.146525	0.146525	1.503286	1.288477	0.000000	0.000000	0.000000	0.000000	0.000000	0.000000	0.000000	0.000000	0.000000	0.000000	0.000000	0.000000	0.000000	0.000000	0.000000	0.000000	0.000000	0.000000	0.000000	0.000000	0.000000	0.000000
6.035000	-0.023022	-0.317017	0.186015	0.116837	0.086359	0.143978	-0.135732	-0.158407	0.127373	0.112201	0.097359	0.027437	0.146525	0.146525	1.502964	1.288493	0.000000	0.000000	0.000000	0.000000	0.000000	0.000000	0.000000	0.000000	0.000000	0.000000	0.000000	0.000000	0.000000	0.000000	0.000000	0.000000	0.000000	0.000000	0.000000	0.000000	0.000000	0.000000
6.040000	-0.022967	-0.317159	0.186885	0.116254	0.085654	0.144521	-0.136428	-0.159969	0.128105	0.111704	0.096805	0.027437	0.146525	0.146525	1.502644	1.288508	0.000000	0.000000	0.000000	0.000000	0.000000	0.000000	0.000000	0.000000	0.000000	0.000000	0.000000	0.000000	0.000000	0.000000	0.000000	0.000000	0.000000	0.000000	0.000000	0.000000	0.000000	0.000000
6.045000	-0.022910	-0.317297	0.187752	0.115666	0.084945	0.145056	-0.137126	-0.161539	0.128832	0.111207	0.096248	0.027437	0.146525	0.146525	1.502327	1.288523	0.000000	0.000000	0.000000	0.000000	0.000000	0.000000	0.000000	0.000000	0.000000	0.000000	0.000000	0.000000	0.000000	0.000000	0.000000	0.000000	0.000000	0.000000	0.000000	0.000000	0.000000	0.000000
6.050000	-0.022853	-0.317432	0.188617	0.115073	0.084234	0.145582	-0.137827	-0.163117	0.129555	0.110712	0.095689	0.027437	0.146525	0.146525	1.502011	1.288538	0.000000	0.000000	0.000000	0.000000	0.000000	0.000000	0.000000	0.000000	0.000000	0.000000	0.000000	0.000000	0.000000	0.000000	0.000000	0.000000	0.000000	0.000000	0.000000	0.000000	0.000000	0.000000
6.055000	-0.022794	-0.317563	0.189479	0.114476	0.083519	0.146100	-0.138529	-0.164703	0.130272	0.110217	0.095129	0.027437	0.146525	0.146525	1.501698	1.288552	0.000000	0.000000	0.000000	0.000000	0.000000	0.000000	0.000000	0.000000	0.000000	0.000000	0.000000	0.000000	0.000000	0.000000	0.000000	0.000000	0.000000	0.000000	0.000000	0.000000	0.000000	0.000000
6.060000	-0.022735	-0.317689	0.190337	0.113874	0.082802	0.146610	-0.139233	-0.166296	0.130985	0.109724	0.094567	0.027437	0.146525	0.146525	1.501386	1.288566	0.000000	0.000000	0.000000	0.000000	0.000000	0.000000	0.000000	0.000000	0.000000	0.000000	0.000000	0.000000	0.000000	0.000000	0.000000	0.000000	0.000000	0.000000	0.000000	0.000000	0.000000	0.000000
